<svg width="16" height="16" viewBox="0 0 16 16" fill="none" xmlns="http://www.w3.org/2000/svg">
<path d="M8 3.65999V13.66M5.16667 5.65999H3.66667M5.66667 7.65999H3.66667M14.6667 11.16V3.11333C14.6667 2.31333 14.0133 1.71999 13.22 1.78666H13.18C11.78 1.90666 9.65334 2.61999 8.46667 3.36666L8.35334 3.43999C8.16 3.55999 7.84 3.55999 7.64667 3.43999L7.48 3.33999C6.29334 2.59999 4.17334 1.89333 2.77334 1.77999C1.98 1.71333 1.33334 2.31333 1.33334 3.10666V11.16C1.33334 11.8 1.85334 12.4 2.49334 12.48L2.68667 12.5067C4.13334 12.7 6.36667 13.4333 7.64667 14.1333L7.67334 14.1467C7.85334 14.2467 8.14 14.2467 8.31334 14.1467C9.59334 13.44 11.8333 12.7 13.2867 12.5067L13.5067 12.48C14.1467 12.4 14.6667 11.8 14.6667 11.16V11.16Z" stroke="#101928" stroke-width="1.5" stroke-linecap="round" stroke-linejoin="round"/>
</svg>
