<svg width="210" height="33" viewBox="0 0 210 33" fill="none" xmlns="http://www.w3.org/2000/svg">
<path d="M58.8176 23.9601C57.1025 23.9601 55.5656 23.6824 54.2069 23.127C52.8482 22.5716 51.7568 21.7496 50.9327 20.661C50.1308 19.5724 49.7076 18.2616 49.6631 16.7287H55.7438C55.8329 17.5952 56.1336 18.2616 56.6459 18.7282C57.1582 19.1725 57.8264 19.3947 58.6505 19.3947C59.4969 19.3947 60.1652 19.2058 60.6552 18.8281C61.1452 18.4283 61.3902 17.884 61.3902 17.1953C61.3902 16.6176 61.1897 16.14 60.7888 15.7623C60.4102 15.3847 59.9313 15.0736 59.3522 14.8292C58.7953 14.5849 57.9935 14.3072 56.9466 13.9961C55.432 13.5296 54.1958 13.0631 53.238 12.5965C52.2803 12.13 51.4561 11.4413 50.7656 10.5304C50.0752 9.61957 49.7299 8.43101 49.7299 6.96475C49.7299 4.78757 50.5206 3.08804 52.1021 1.86615C53.6835 0.62205 55.7438 0 58.283 0C60.8668 0 62.9494 0.62205 64.5308 1.86615C66.1122 3.08804 66.9586 4.79868 67.07 6.99807H60.889C60.8445 6.24272 60.5661 5.654 60.0538 5.23189C59.5415 4.78757 58.8844 4.56541 58.0826 4.56541C57.3921 4.56541 56.8352 4.75424 56.412 5.13192C55.9888 5.48738 55.7772 6.00945 55.7772 6.69815C55.7772 7.4535 56.1336 8.04223 56.8464 8.46433C57.5591 8.88644 58.6728 9.34187 60.1874 9.83062C61.702 10.3416 62.9271 10.8303 63.8626 11.2969C64.8204 11.7634 65.6445 12.441 66.335 13.3297C67.0255 14.2183 67.3707 15.3624 67.3707 16.762C67.3707 18.095 67.0255 19.3058 66.335 20.3944C65.6668 21.483 64.6867 22.3494 63.3948 22.9937C62.103 23.6379 60.5772 23.9601 58.8176 23.9601Z" fill="#001D3D"/>
<path d="M81.2773 18.8948V23.7268H78.3706C76.2992 23.7268 74.6843 23.2269 73.5261 22.2272C72.3679 21.2053 71.7887 19.5502 71.7887 17.2619V9.86395H69.5168V5.13192H71.7887V0.599835H77.5019V5.13192H81.2439V9.86395H77.5019V17.3286C77.5019 17.884 77.6356 18.2839 77.9029 18.5282C78.1702 18.7726 78.6156 18.8948 79.2393 18.8948H81.2773Z" fill="#001D3D"/>
<path d="M83.3237 14.396C83.3237 12.4854 83.6801 10.8081 84.3929 9.36409C85.1279 7.92004 86.1191 6.80923 87.3664 6.03167C88.6138 5.25411 90.0059 4.86533 91.5428 4.86533C92.8569 4.86533 94.004 5.13192 94.984 5.66511C95.9864 6.19829 96.7548 6.8981 97.2894 7.76453V5.13192H103.003V23.7268H97.2894V21.0942C96.7325 21.9606 95.953 22.6604 94.9506 23.1936C93.9706 23.7268 92.8235 23.9934 91.5093 23.9934C89.9947 23.9934 88.6138 23.6046 87.3664 22.827C86.1191 22.0273 85.1279 20.9054 84.3929 19.4613C83.6801 17.995 83.3237 16.3066 83.3237 14.396ZM97.2894 14.4294C97.2894 13.0075 96.8885 11.8856 96.0866 11.0636C95.307 10.2416 94.3492 9.83062 93.2133 9.83062C92.0773 9.83062 91.1084 10.2416 90.3066 11.0636C89.527 11.8634 89.1372 12.9742 89.1372 14.396C89.1372 15.8179 89.527 16.9509 90.3066 17.7951C91.1084 18.6171 92.0773 19.0281 93.2133 19.0281C94.3492 19.0281 95.307 18.6171 96.0866 17.7951C96.8885 16.9731 97.2894 15.8512 97.2894 14.4294Z" fill="#001D3D"/>
<path d="M112.849 8.23106C113.517 7.20912 114.353 6.40934 115.355 5.83173C116.357 5.23189 117.471 4.93197 118.696 4.93197V10.9636H117.126C115.7 10.9636 114.631 11.2747 113.918 11.8967C113.205 12.4966 112.849 13.5629 112.849 15.0958V23.7268H107.136V5.13192H112.849V8.23106Z" fill="#001D3D"/>
<path d="M131.817 18.8948V23.7268H128.911C126.839 23.7268 125.224 23.2269 124.066 22.2272C122.908 21.2053 122.329 19.5502 122.329 17.2619V9.86395H120.057V5.13192H122.329V0.599835H128.042V5.13192H131.784V9.86395H128.042V17.3286C128.042 17.884 128.176 18.2839 128.443 18.5282C128.71 18.7726 129.156 18.8948 129.779 18.8948H131.817Z" fill="#001D3D"/>
<path d="M152.574 14.1294C152.574 14.6626 152.54 15.218 152.474 15.7956H139.544C139.633 16.9509 140 17.8395 140.646 18.4616C141.314 19.0614 142.127 19.3613 143.085 19.3613C144.511 19.3613 145.502 18.7615 146.059 17.5618H152.139C151.828 18.7837 151.26 19.8834 150.435 20.8609C149.634 21.8384 148.62 22.6049 147.395 23.1603C146.17 23.7157 144.8 23.9934 143.286 23.9934C141.459 23.9934 139.833 23.6046 138.408 22.827C136.982 22.0495 135.868 20.9387 135.067 19.4946C134.265 18.0506 133.864 16.3622 133.864 14.4294C133.864 12.4966 134.254 10.8081 135.033 9.36409C135.835 7.92004 136.949 6.80923 138.374 6.03167C139.8 5.25411 141.437 4.86533 143.286 4.86533C145.09 4.86533 146.693 5.243 148.097 5.99835C149.5 6.75369 150.591 7.83117 151.371 9.23079C152.173 10.6304 152.574 12.2633 152.574 14.1294ZM146.727 12.6299C146.727 11.6523 146.393 10.8748 145.725 10.2972C145.056 9.71954 144.221 9.43074 143.219 9.43074C142.261 9.43074 141.448 9.70844 140.78 10.2638C140.134 10.8192 139.733 11.6079 139.577 12.6299H146.727Z" fill="#001D3D"/>
<path d="M179.376 4.93197C181.693 4.93197 183.53 5.63178 184.889 7.0314C186.27 8.43101 186.96 10.3749 186.96 12.8631V23.7268H181.281V13.6296C181.281 12.4299 180.958 11.5079 180.312 10.8637C179.688 10.1972 178.819 9.86395 177.706 9.86395C176.592 9.86395 175.712 10.1972 175.066 10.8637C174.442 11.5079 174.131 12.4299 174.131 13.6296V23.7268H168.451V13.6296C168.451 12.4299 168.128 11.5079 167.482 10.8637C166.858 10.1972 165.99 9.86395 164.876 9.86395C163.762 9.86395 162.882 10.1972 162.236 10.8637C161.613 11.5079 161.301 12.4299 161.301 13.6296V23.7268H155.588V5.13192H161.301V7.46461C161.88 6.68705 162.637 6.0761 163.573 5.63178C164.508 5.16524 165.566 4.93197 166.747 4.93197C168.15 4.93197 169.397 5.23189 170.489 5.83173C171.603 6.43156 172.471 7.28688 173.095 8.39769C173.741 7.37575 174.621 6.54264 175.734 5.89838C176.848 5.25411 178.062 4.93197 179.376 4.93197Z" fill="#001D3D"/>
<path d="M210 5.13192L198.306 32.5577H192.159L196.435 23.0936L188.851 5.13192H195.233L199.543 16.762L203.819 5.13192H210Z" fill="#001D3D"/>
<rect x="49.1877" y="28.3552" width="141.067" height="4.62836" rx="1" fill="#FFC300"/>
<path d="M36.3989 0.585022C30.9057 0.608523 26.8222 1.36298 23.8672 2.66687C21.6622 3.63932 20.7993 4.37514 20.7993 6.86785V33C24.1768 29.9611 27.174 29.1102 38.9988 29.1102V0.585022H36.3989Z" fill="#FFC300"/>
<path d="M2.59992 0.585022C8.09308 0.608523 12.1766 1.36298 15.1316 2.66687C17.3366 3.63932 18.1995 4.37514 18.1995 6.86785V33C14.822 29.9611 11.8248 29.1102 0 29.1102V0.585022H2.59992Z" fill="#001D3D"/>
</svg>
