<svg width="15" height="15" viewBox="0 0 15 15" fill="none" xmlns="http://www.w3.org/2000/svg">
<path d="M14.3086 12.8633L11.5742 10.1289C11.4375 10.0195 11.2734 9.9375 11.1094 9.9375H10.6719C11.4102 8.98047 11.875 7.77734 11.875 6.4375C11.875 3.32031 9.30469 0.75 6.1875 0.75C3.04297 0.75 0.5 3.32031 0.5 6.4375C0.5 9.58203 3.04297 12.125 6.1875 12.125C7.5 12.125 8.70312 11.6875 9.6875 10.9219V11.3867C9.6875 11.5508 9.74219 11.7148 9.87891 11.8516L12.5859 14.5586C12.8594 14.832 13.2695 14.832 13.5156 14.5586L14.2812 13.793C14.5547 13.5469 14.5547 13.1367 14.3086 12.8633ZM6.1875 9.9375C4.24609 9.9375 2.6875 8.37891 2.6875 6.4375C2.6875 4.52344 4.24609 2.9375 6.1875 2.9375C8.10156 2.9375 9.6875 4.52344 9.6875 6.4375C9.6875 8.37891 8.10156 9.9375 6.1875 9.9375Z" fill="#333333"/>
</svg>
