<svg width="24" height="24" viewBox="0 0 24 24" fill="none" xmlns="http://www.w3.org/2000/svg">
<path d="M2 4H3.392C4.256 4 4.936 4.744 4.864 5.6L4.2 13.568C4.17407 13.8767 4.21255 14.1874 4.31299 14.4804C4.41343 14.7735 4.57364 15.0425 4.78347 15.2703C4.9933 15.4982 5.24818 15.68 5.53196 15.8043C5.81574 15.9285 6.12222 15.9924 6.432 15.992H14.952C16.104 15.992 17.112 15.048 17.2 13.904L17.632 7.904C17.728 6.576 16.72 5.496 15.384 5.496H5.056M7.6 8.8H17.2M13.4 20C13.6652 20 13.9196 19.8946 14.1071 19.7071C14.2946 19.5196 14.4 19.2652 14.4 19C14.4 18.7348 14.2946 18.4804 14.1071 18.2929C13.9196 18.1054 13.6652 18 13.4 18C13.1348 18 12.8804 18.1054 12.6929 18.2929C12.5054 18.4804 12.4 18.7348 12.4 19C12.4 19.2652 12.5054 19.5196 12.6929 19.7071C12.8804 19.8946 13.1348 20 13.4 20ZM7 20C7.26522 20 7.51957 19.8946 7.70711 19.7071C7.89464 19.5196 8 19.2652 8 19C8 18.7348 7.89464 18.4804 7.70711 18.2929C7.51957 18.1054 7.26522 18 7 18C6.73478 18 6.48043 18.1054 6.29289 18.2929C6.10536 18.4804 6 18.7348 6 19C6 19.2652 6.10536 19.5196 6.29289 19.7071C6.48043 19.8946 6.73478 20 7 20V20Z" stroke="#101928" stroke-width="1.5" stroke-miterlimit="10" stroke-linecap="round" stroke-linejoin="round"/>
</svg>
