<svg width="131" height="23" viewBox="0 0 131 23" fill="none" xmlns="http://www.w3.org/2000/svg">
<g clip-path="url(#clip0_52_218)">
<path d="M20.1308 8.41927C20.0731 8.24946 19.967 8.10025 19.8255 7.99006C19.684 7.87987 19.5134 7.81353 19.3346 7.79922L14.1054 7.38371L11.8426 2.3747C11.7706 2.21337 11.6533 2.07634 11.5051 1.98016C11.3569 1.88397 11.184 1.83274 11.0073 1.83264C10.8306 1.83254 10.6577 1.88359 10.5094 1.97961C10.361 2.07563 10.2437 2.21253 10.1714 2.37378L7.9086 7.38371L2.67945 7.79922C2.50376 7.81314 2.3358 7.87738 2.19566 7.98425C2.05552 8.09113 1.94914 8.23612 1.88925 8.40187C1.82935 8.56762 1.81848 8.74712 1.85793 8.91889C1.89737 9.09066 1.98547 9.24743 2.11168 9.37044L5.97599 13.1375L4.60931 19.0555C4.56781 19.2347 4.58112 19.4221 4.64749 19.5936C4.71386 19.7651 4.83024 19.9127 4.98153 20.0172C5.13282 20.1217 5.31202 20.1783 5.4959 20.1797C5.67977 20.1811 5.85982 20.1272 6.01268 20.025L11.007 16.6955L16.0014 20.025C16.1576 20.1288 16.3419 20.1822 16.5294 20.1781C16.7168 20.1739 16.8986 20.1125 17.0501 20.002C17.2017 19.8916 17.3157 19.7373 17.377 19.5601C17.4383 19.3828 17.4438 19.1911 17.3928 19.0106L15.7152 13.1403L19.8758 9.39612C20.1482 9.15031 20.2482 8.7669 20.1308 8.41927Z" fill="#FFD60A"/>
<path d="M47.1457 8.41927C47.088 8.24946 46.9819 8.10025 46.8404 7.99006C46.6989 7.87987 46.5283 7.81353 46.3495 7.79922L41.1204 7.38371L38.8575 2.3747C38.7855 2.21337 38.6683 2.07634 38.52 1.98016C38.3718 1.88397 38.1989 1.83274 38.0222 1.83264C37.8455 1.83254 37.6726 1.88359 37.5243 1.97961C37.376 2.07563 37.2586 2.21253 37.1863 2.37378L34.9235 7.38371L29.6944 7.79922C29.5187 7.81314 29.3507 7.87738 29.2106 7.98425C29.0704 8.09113 28.9641 8.23612 28.9042 8.40187C28.8443 8.56762 28.8334 8.74712 28.8729 8.91889C28.9123 9.09066 29.0004 9.24743 29.1266 9.37044L32.9909 13.1375L31.6242 19.0555C31.5827 19.2347 31.596 19.4221 31.6624 19.5936C31.7288 19.7651 31.8452 19.9127 31.9965 20.0172C32.1477 20.1217 32.3269 20.1783 32.5108 20.1797C32.6947 20.1811 32.8747 20.1272 33.0276 20.025L38.0219 16.6955L43.0163 20.025C43.1725 20.1288 43.3568 20.1822 43.5443 20.1781C43.7318 20.1739 43.9135 20.1125 44.065 20.002C44.2166 19.8916 44.3307 19.7373 44.3919 19.5601C44.4532 19.3828 44.4587 19.1911 44.4077 19.0106L42.7301 13.1403L46.8907 9.39612C47.1631 9.15031 47.2631 8.7669 47.1457 8.41927Z" fill="#FFD60A"/>
<path d="M74.1567 8.41927C74.0991 8.24946 73.9929 8.10025 73.8515 7.99006C73.71 7.87987 73.5393 7.81353 73.3606 7.79922L68.1314 7.38371L65.8686 2.3747C65.7965 2.21337 65.6793 2.07634 65.5311 1.98016C65.3829 1.88397 65.21 1.83274 65.0333 1.83264C64.8566 1.83254 64.6837 1.88359 64.5353 1.97961C64.387 2.07563 64.2696 2.21253 64.1974 2.37378L61.9346 7.38371L56.7054 7.79922C56.5297 7.81314 56.3618 7.87738 56.2216 7.98425C56.0815 8.09113 55.9751 8.23612 55.9152 8.40187C55.8553 8.56762 55.8444 8.74712 55.8839 8.91889C55.9233 9.09066 56.0114 9.24743 56.1377 9.37044L60.002 13.1375L58.6353 19.0555C58.5938 19.2347 58.6071 19.4221 58.6735 19.5936C58.7398 19.7651 58.8562 19.9127 59.0075 20.0172C59.1588 20.1217 59.338 20.1783 59.5219 20.1797C59.7057 20.1811 59.8858 20.1272 60.0387 20.025L65.033 16.6955L70.0273 20.025C70.1836 20.1288 70.3678 20.1822 70.5553 20.1781C70.7428 20.1739 70.9246 20.1125 71.0761 20.002C71.2276 19.8916 71.3417 19.7373 71.403 19.5601C71.4642 19.3828 71.4697 19.1911 71.4188 19.0106L69.7412 13.1403L73.9017 9.39612C74.1741 9.15031 74.2741 8.7669 74.1567 8.41927Z" fill="#FFD60A"/>
<path d="M101.171 8.41927C101.113 8.24946 101.007 8.10025 100.865 7.99006C100.724 7.87987 100.553 7.81353 100.375 7.79922L95.1454 7.38371L92.8826 2.3747C92.8105 2.21337 92.6933 2.07634 92.5451 1.98016C92.3968 1.88397 92.224 1.83274 92.0473 1.83264C91.8706 1.83254 91.6976 1.88359 91.5493 1.97961C91.401 2.07563 91.2836 2.21253 91.2114 2.37378L88.9486 7.38371L83.7194 7.79922C83.5437 7.81314 83.3757 7.87738 83.2356 7.98425C83.0955 8.09113 82.9891 8.23612 82.9292 8.40187C82.8693 8.56762 82.8584 8.74712 82.8979 8.91889C82.9373 9.09066 83.0254 9.24743 83.1516 9.37044L87.0159 13.1375L85.6493 19.0555C85.6078 19.2347 85.6211 19.4221 85.6874 19.5936C85.7538 19.7651 85.8702 19.9127 86.0215 20.0172C86.1728 20.1217 86.352 20.1783 86.5358 20.1797C86.7197 20.1811 86.8998 20.1272 87.0526 20.025L92.047 16.6955L97.0413 20.025C97.1975 20.1288 97.3818 20.1822 97.5693 20.1781C97.7568 20.1739 97.9385 20.1125 98.0901 20.002C98.2416 19.8916 98.3557 19.7373 98.4169 19.5601C98.4782 19.3828 98.4837 19.1911 98.4328 19.0106L96.7551 13.1403L100.916 9.39612C101.188 9.15031 101.288 8.7669 101.171 8.41927Z" fill="#FFD60A"/>
<path d="M128.184 8.41927C128.127 8.24946 128.021 8.10025 127.879 7.99006C127.738 7.87987 127.567 7.81353 127.388 7.79922L122.159 7.38371L119.896 2.3747C119.824 2.21337 119.707 2.07634 119.559 1.98016C119.41 1.88397 119.238 1.83274 119.061 1.83264C118.884 1.83254 118.711 1.88359 118.563 1.97961C118.415 2.07563 118.297 2.21253 118.225 2.37378L115.962 7.38371L110.733 7.79922C110.557 7.81314 110.389 7.87738 110.249 7.98425C110.109 8.09113 110.003 8.23612 109.943 8.40187C109.883 8.56762 109.872 8.74712 109.911 8.91889C109.951 9.09066 110.039 9.24743 110.165 9.37044L114.03 13.1375L112.663 19.0555C112.621 19.2347 112.635 19.4221 112.701 19.5936C112.767 19.7651 112.884 19.9127 113.035 20.0172C113.186 20.1217 113.366 20.1783 113.549 20.1797C113.733 20.1811 113.913 20.1272 114.066 20.025L119.061 16.6955L124.055 20.025C124.211 20.1288 124.395 20.1822 124.583 20.1781C124.77 20.1739 124.952 20.1125 125.104 20.002C125.255 19.8916 125.369 19.7373 125.431 19.5601C125.492 19.3828 125.497 19.1911 125.446 19.0106L123.769 13.1403L127.929 9.39612C128.202 9.15031 128.302 8.7669 128.184 8.41927Z" fill="#FFD60A"/>
</g>
<defs>
<clipPath id="clip0_52_218">
<rect width="130.068" height="22.0136" fill="white"/>
</clipPath>
</defs>
</svg>
