<svg width="230" height="35" viewBox="0 0 230 35" fill="none" xmlns="http://www.w3.org/2000/svg">
<path d="M64.4192 25.4122C62.5408 25.4122 60.8575 25.1177 59.3694 24.5286C57.8813 23.9395 56.686 23.0677 55.7833 21.9132C54.9051 20.7586 54.4416 19.3684 54.3928 17.7426H61.0527C61.1502 18.6615 61.4796 19.3684 62.0407 19.8632C62.6018 20.3345 63.3336 20.5701 64.2362 20.5701C65.1632 20.5701 65.8951 20.3698 66.4318 19.9692C66.9685 19.5451 67.2368 18.9678 67.2368 18.2374C67.2368 17.6248 67.0173 17.1182 66.5781 16.7176C66.1634 16.3171 65.6389 15.9872 65.0047 15.728C64.3948 15.4688 63.5166 15.1743 62.37 14.8444C60.7111 14.3496 59.3572 13.8548 58.3082 13.36C57.2592 12.8651 56.3566 12.1347 55.6004 11.1686C54.8441 10.2026 54.466 8.94198 54.466 7.38685C54.466 5.07772 55.332 3.27519 57.0641 1.97925C58.7961 0.65975 61.0527 0 63.8337 0C66.6635 0 68.9445 0.65975 70.6765 1.97925C72.4086 3.27519 73.3356 5.08951 73.4576 7.4222H66.6879C66.6391 6.62107 66.3342 5.99667 65.7731 5.54898C65.212 5.07773 64.4924 4.8421 63.6141 4.8421C62.8579 4.8421 62.248 5.04238 61.7845 5.44294C61.321 5.81994 61.0893 6.37366 61.0893 7.1041C61.0893 7.90523 61.4796 8.52964 62.2602 8.97732C63.0409 9.42501 64.2606 9.90804 65.9195 10.4264C67.5783 10.9684 68.9201 11.4867 69.9447 11.9815C70.9937 12.4764 71.8963 13.195 72.6525 14.1375C73.4088 15.08 73.7869 16.2935 73.7869 17.7779C73.7869 19.1917 73.4088 20.4758 72.6525 21.6304C71.9207 22.785 70.8473 23.7039 69.4324 24.3872C68.0175 25.0705 66.3464 25.4122 64.4192 25.4122Z" fill="white"/>
<path d="M89.018 20.0399V25.1648H85.8344C83.5657 25.1648 81.797 24.6346 80.5285 23.5743C79.2599 22.4904 78.6257 20.735 78.6257 18.3081V10.4618H76.1374V5.44294H78.6257V0.636188H84.883V5.44294H88.9814V10.4618H84.883V18.3788C84.883 18.9678 85.0294 19.392 85.3221 19.6512C85.6149 19.9103 86.1028 20.0399 86.7858 20.0399H89.018Z" fill="white"/>
<path d="M91.2593 15.2685C91.2593 13.2421 91.6496 11.4632 92.4302 9.93161C93.2353 8.40004 94.3208 7.22192 95.687 6.39723C97.0531 5.57254 98.5778 5.16019 100.261 5.16019C101.7 5.16019 102.957 5.44294 104.03 6.00845C105.128 6.57395 105.969 7.31617 106.555 8.2351V5.44294H112.812V25.1648H106.555V22.3726C105.945 23.2916 105.091 24.0338 103.993 24.5993C102.92 25.1648 101.664 25.4475 100.224 25.4475C98.5656 25.4475 97.0531 25.0352 95.687 24.2105C94.3208 23.3623 93.2353 22.1723 92.4302 20.6408C91.6496 19.0857 91.2593 17.2949 91.2593 15.2685ZM106.555 15.3039C106.555 13.7959 106.116 12.606 105.238 11.7341C104.384 10.8623 103.335 10.4264 102.091 10.4264C100.847 10.4264 99.7853 10.8623 98.9071 11.7341C98.0533 12.5824 97.6264 13.7605 97.6264 15.2685C97.6264 16.7765 98.0533 17.9782 98.9071 18.8736C99.7853 19.7454 100.847 20.1813 102.091 20.1813C103.335 20.1813 104.384 19.7454 105.238 18.8736C106.116 18.0018 106.555 16.8119 106.555 15.3039Z" fill="white"/>
<path d="M123.597 8.72992C124.328 7.64604 125.243 6.79779 126.341 6.18516C127.439 5.54898 128.658 5.23088 130 5.23088V11.6281H128.28C126.719 11.6281 125.548 11.958 124.767 12.6177C123.987 13.2539 123.597 14.3849 123.597 16.0107V25.1648H117.339V5.44294H123.597V8.72992Z" fill="white"/>
<path d="M144.371 20.0399V25.1648H141.188C138.919 25.1648 137.15 24.6346 135.882 23.5743C134.613 22.4904 133.979 20.735 133.979 18.3081V10.4618H131.491V5.44294H133.979V0.636188H140.236V5.44294H144.335V10.4618H140.236V18.3788C140.236 18.9678 140.383 19.392 140.676 19.6512C140.968 19.9103 141.456 20.0399 142.139 20.0399H144.371Z" fill="white"/>
<path d="M167.104 14.9858C167.104 15.5513 167.068 16.1403 166.995 16.753H152.833C152.931 17.9782 153.334 18.9207 154.041 19.5805C154.773 20.2167 155.663 20.5347 156.712 20.5347C158.273 20.5347 159.359 19.8986 159.969 18.6262H166.629C166.287 19.9221 165.665 21.0885 164.763 22.1252C163.884 23.162 162.774 23.9749 161.433 24.5639C160.091 25.153 158.591 25.4475 156.932 25.4475C154.931 25.4475 153.151 25.0352 151.589 24.2105C150.028 23.3858 148.808 22.2077 147.93 20.6761C147.052 19.1446 146.613 17.3538 146.613 15.3039C146.613 13.2539 147.04 11.4632 147.893 9.93161C148.772 8.40004 149.991 7.22192 151.553 6.39723C153.114 5.57254 154.907 5.16019 156.932 5.16019C158.908 5.16019 160.664 5.56076 162.201 6.36188C163.738 7.16301 164.933 8.30579 165.787 9.79023C166.665 11.2747 167.104 13.0065 167.104 14.9858ZM160.701 13.3953C160.701 12.3585 160.335 11.5339 159.603 10.9212C158.871 10.3086 157.956 10.0023 156.859 10.0023C155.81 10.0023 154.919 10.2968 154.187 10.8859C153.48 11.475 153.041 12.3114 152.87 13.3953H160.701Z" fill="white"/>
<path d="M196.459 5.23088C198.997 5.23088 201.009 5.9731 202.497 7.45754C204.01 8.94198 204.766 11.0037 204.766 13.6427V25.1648H198.545V14.4556C198.545 13.1832 198.192 12.2054 197.484 11.5221C196.801 10.8152 195.85 10.4618 194.63 10.4618C193.41 10.4618 192.446 10.8152 191.739 11.5221C191.056 12.2054 190.714 13.1832 190.714 14.4556V25.1648H184.494V14.4556C184.494 13.1832 184.14 12.2054 183.433 11.5221C182.749 10.8152 181.798 10.4618 180.578 10.4618C179.359 10.4618 178.395 10.8152 177.687 11.5221C177.004 12.2054 176.663 13.1832 176.663 14.4556V25.1648H170.406V5.44294H176.663V7.91701C177.297 7.09232 178.127 6.44435 179.151 5.9731C180.176 5.47829 181.335 5.23088 182.627 5.23088C184.164 5.23088 185.53 5.54898 186.726 6.18516C187.946 6.82135 188.897 7.72851 189.58 8.90664C190.288 7.82276 191.251 6.93917 192.471 6.25585C193.691 5.57254 195.02 5.23088 196.459 5.23088Z" fill="white"/>
<path d="M230 5.44294L217.193 34.5309H210.46L215.143 24.4933L206.837 5.44294H213.826L218.547 17.7779L223.23 5.44294H230Z" fill="white"/>
<rect x="53.8724" y="30.0737" width="154.502" height="4.90886" rx="1" fill="#FFC300"/>
<path d="M39.8655 0.620514C33.8492 0.645439 29.3768 1.44562 26.1404 2.82854C23.7253 3.85992 22.7803 4.64034 22.7803 7.28412V35C26.4794 31.7769 29.7621 30.8745 42.713 30.8745V0.620514H39.8655Z" fill="#FFC300"/>
<path d="M2.84754 0.620514C8.86384 0.645439 13.3363 1.44562 16.5727 2.82854C18.9877 3.85992 19.9328 4.64034 19.9328 7.28412V35C16.2336 31.7769 12.9509 30.8745 0 30.8745V0.620514H2.84754Z" fill="white"/>
</svg>
